<svg width="262" height="275" viewBox="0 0 262 275" fill="none" xmlns="http://www.w3.org/2000/svg">
<path fill-rule="evenodd" clip-rule="evenodd" d="M89.8639 -1.41752C145.676 -1.50913 215.932 -41.1564 250.881 2.48362C286.366 46.7924 225.884 107.246 222.309 163.963C219.202 213.277 264.79 269.599 231.738 306.243C198.741 342.826 138.377 318.942 89.8639 310.799C51.9831 304.441 17.2557 291.173 -11.3273 265.444C-41.9228 237.904 -64.1787 204.173 -73.2647 163.963C-85.5574 109.561 -109.744 42.6676 -70.6273 3.01136C-31.5014 -36.6545 34.2292 -1.3262 89.8639 -1.41752Z" fill="#253B8F" fill-opacity="0.16"/>
<path fill-rule="evenodd" clip-rule="evenodd" d="M69.8639 -31.4175C125.676 -31.5091 195.932 -71.1564 230.881 -27.5164C266.366 16.7924 205.884 77.2458 202.309 133.963C199.202 183.277 244.79 239.599 211.738 276.243C178.741 312.826 118.377 288.942 69.8639 280.799C31.9831 274.441 -2.7443 261.173 -31.3273 235.444C-61.9228 207.904 -84.1787 174.173 -93.2647 133.963C-105.557 79.5614 -129.744 12.6676 -90.6273 -26.9886C-51.5014 -66.6545 14.2292 -31.3262 69.8639 -31.4175Z" fill="#253B8F" fill-opacity="0.16"/>
</svg>
